HIERARCHY
ROOT SpineBase
{
  OFFSET 0.000000 0.000000 0.000000
  CHANNELS 6 Xposition Yposition Zposition Zrotation Xrotation Yrotation
  JOINT SpineMid
  {
    OFFSET -0.000000 31.323678 0.000000
    CHANNELS 3 Zrotation Xrotation Yrotation
    JOINT SpineShoulder
    {
      OFFSET -0.253506 23.360078 -0.591610
      CHANNELS 3 Zrotation Xrotation Yrotation
      JOINT Neck
      {
        OFFSET -0.177681 7.720792 -0.520276
        CHANNELS 3 Zrotation Xrotation Yrotation
        JOINT Head
        {
          OFFSET -3.244619 11.033295 2.211079
          CHANNELS 3 Zrotation Xrotation Yrotation
          End Site
          {
            OFFSET 0 0 0
          }
        }
      }
      JOINT ShoulderLeft
      {
        OFFSET -10.518629 -3.661772 20.711490
        CHANNELS 3 Zrotation Xrotation Yrotation
        JOINT ElbowLeft
        {
          OFFSET 3.822277 -10.113338 -20.123378
          CHANNELS 3 Zrotation Xrotation Yrotation
          JOINT WristLeft
          {
            OFFSET -5.016341 -17.535346 10.416931
            CHANNELS 3 Zrotation Xrotation Yrotation
            JOINT HandLeft
            {
              OFFSET -1.494403 -4.913320 3.119992
              CHANNELS 3 Zrotation Xrotation Yrotation
              JOINT HandTipLeft
              {
                OFFSET -0.146857 0.362960 0.354144
                CHANNELS 3 Zrotation Xrotation Yrotation
                End Site
                {
                  OFFSET 0 0 0
                }
              }
              JOINT ThumbLeft
              {
                OFFSET -0.007590 0.949267 -1.150766
                CHANNELS 3 Zrotation Xrotation Yrotation
                End Site
                {
                  OFFSET 0 0 0
                }
              }
            }
          }
        }
      }
      JOINT ShoulderRight
      {
        OFFSET 0.527867 -4.456192 -11.676456
        CHANNELS 3 Zrotation Xrotation Yrotation
        JOINT ElbowRight
        {
          OFFSET -1.336435 -21.075910 -6.545404
          CHANNELS 3 Zrotation Xrotation Yrotation
          JOINT WristRight
          {
            OFFSET -10.037886 -18.379258 5.409526
            CHANNELS 3 Zrotation Xrotation Yrotation
            JOINT HandRight
            {
              OFFSET -5.500656 -5.414364 5.984397
              CHANNELS 3 Zrotation Xrotation Yrotation
              JOINT HandTipRight
              {
                OFFSET -3.703262 -3.851195 2.119057
                CHANNELS 3 Zrotation Xrotation Yrotation
                End Site
                {
                  OFFSET 0 0 0
                }
              }
              JOINT ThumbRight
              {
                OFFSET 4.249632 -1.878282 -0.688683
                CHANNELS 3 Zrotation Xrotation Yrotation
                End Site
                {
                  OFFSET 0 0 0
                }
              }
            }
          }
        }
      }
    }
  }
  JOINT HipLeft
  {
    OFFSET -1.821052 0.711625 -1.360848
    CHANNELS 3 Zrotation Xrotation Yrotation
    JOINT KneeLeft
    {
      OFFSET 13.342831 -26.257736 5.217804
      CHANNELS 3 Zrotation Xrotation Yrotation
      JOINT AnkleLeft
      {
        OFFSET 6.118852 -33.360351 9.679541
        CHANNELS 3 Zrotation Xrotation Yrotation
        JOINT FootLeft
        {
          OFFSET -3.872897 -0.893091 -11.848079
          CHANNELS 3 Zrotation Xrotation Yrotation
          End Site
          {
            OFFSET 0 0 0
          }
        }
      }
    }
  }
  JOINT HipRight
  {
    OFFSET 1.734649 0.870067 -4.300115
    CHANNELS 3 Zrotation Xrotation Yrotation
    JOINT KneeRight
    {
      OFFSET 3.877534 -29.168763 1.041778
      CHANNELS 3 Zrotation Xrotation Yrotation
      JOINT AnkleRight
      {
        OFFSET 5.043008 -32.094834 1.557500
        CHANNELS 3 Zrotation Xrotation Yrotation
        JOINT FootRight
        {
          OFFSET -3.614271 -6.159185 -2.453676
          CHANNELS 3 Zrotation Xrotation Yrotation
          End Site
          {
            OFFSET 0 0 0
          }
        }
      }
    }
  }
}
MOTION
Frames: 6
Frame Time: 0.033333
-0.704168 67.325162 342.783088 -0.000000 0.000000 39.578323 -0.000000 0.000000 -39.578323 -0.000000 0.000000 0.000000 -0.000000 0.000000 0.000000 0.000000 0.000000 0.000000 -0.000000 0.000000 0.000000 -0.000000 0.000000 0.000000 -0.000000 0.000000 0.000000 -0.000000 0.000000 0.000000 0.000000 0.000000 0.000000 0.000000 0.000000 0.000000 -0.000000 0.000000 0.000000 -0.000000 0.000000 0.000000 -0.000000 0.000000 0.000000 -0.000000 0.000000 0.000000 0.000000 0.000000 0.000000 0.000000 0.000000 0.000000 -0.000000 0.000000 -39.578323 -0.000000 0.000000 0.000000 -0.000000 0.000000 0.000000 0.000000 0.000000 0.000000 -0.000000 0.000000 -39.578323 -0.000000 0.000000 0.000000 -0.000000 0.000000 0.000000 0.000000 0.000000 0.000000
-1.059248 67.511054 342.805091 -0.277298 -0.070770 37.643434 0.262795 -0.113321 -37.643346 -0.000000 0.000000 0.000000 -0.000000 0.000000 0.000000 0.000000 0.000000 0.000000 -0.223685 -1.194621 -0.008954 0.223547 1.194647 0.004292 1.455625 -1.548208 1.408259 21.505011 -38.554803 -43.845812 0.000000 0.000000 0.000000 0.000000 0.000000 0.000000 -1.973936 -2.611845 0.738146 1.537195 1.731197 -0.477715 4.372577 6.237284 -1.926483 -4.822736 -9.118160 3.793091 0.000000 0.000000 0.000000 0.000000 0.000000 0.000000 0.084891 -2.510094 -38.397160 -1.532349 4.364695 1.178482 2.636986 -10.130038 8.972448 0.000000 0.000000 0.000000 0.262795 -0.113321 -37.643346 0.724910 -0.687582 -0.068423 2.858765 -5.059028 2.248217 0.000000 0.000000 0.000000
-1.385852 67.667585 342.818040 -0.531714 -0.136786 35.921823 0.510842 -0.201175 -35.921561 -0.000000 0.000000 0.000000 -0.000000 0.000000 0.000000 0.000000 0.000000 0.000000 -0.423492 -2.319738 -0.044624 0.422031 2.320004 0.027504 1.895055 -2.333760 1.936514 24.985457 -50.427148 -59.002921 0.000000 0.000000 0.000000 0.000000 0.000000 0.000000 -3.536867 -4.757776 1.267477 2.755922 3.061068 -0.867933 8.492705 11.646650 -4.111034 -8.784279 -16.646899 6.160873 0.000000 0.000000 0.000000 0.000000 0.000000 0.000000 0.286978 -4.687115 -37.332933 -2.979820 8.179958 2.270354 6.661941 -19.594632 18.778627 0.000000 0.000000 0.000000 0.988244 0.901719 -35.777718 1.548961 -2.394294 -0.232172 5.169087 -9.137859 4.413114 0.000000 0.000000 0.000000
-1.683980 67.794755 342.821934 -0.762580 -0.197886 34.432052 -0.025426 0.038557 -34.455526 -0.002348 0.220621 -0.029594 -0.285335 0.107366 0.317583 0.000000 0.000000 0.000000 0.211010 -3.413605 -0.052587 -0.296127 3.923616 -0.557874 2.823009 -3.374639 2.804443 30.043180 -53.605995 -65.486331 0.000000 0.000000 0.000000 0.000000 0.000000 0.000000 -3.869289 -6.439032 1.673808 3.635913 3.989938 -1.141262 12.029746 15.903289 -6.257343 -11.945396 -22.489218 7.545552 0.000000 0.000000 0.000000 0.000000 0.000000 0.000000 0.561038 -6.519365 -36.395384 -4.300961 11.396455 3.248727 11.792037 -27.467105 28.714212 0.000000 0.000000 0.000000 1.388406 1.196315 -34.237983 1.997531 -3.174685 -0.291156 6.574599 -11.980122 6.199630 0.000000 0.000000 0.000000
-1.953632 67.892563 342.816774 -0.969305 -0.253922 33.187053 -0.035131 0.045304 -33.217385 -0.017342 0.267040 -0.038478 -0.319357 0.157521 0.400569 0.000000 0.000000 0.000000 0.293158 -4.386461 -0.122855 -0.496943 5.094641 -0.706493 2.911909 -3.968041 3.012544 38.187122 -53.620781 -68.421977 0.000000 0.000000 0.000000 0.000000 0.000000 0.000000 -4.359736 -7.538275 1.901415 4.168415 4.528822 -1.279066 14.644551 18.839984 -8.034068 -14.250188 -26.566594 8.269676 0.000000 0.000000 0.000000 0.000000 0.000000 0.000000 0.865833 -8.003095 -35.594423 -5.454385 13.983822 4.084646 17.406012 -33.384706 37.973641 0.000000 0.000000 0.000000 1.743607 1.374958 -32.956959 2.236410 -3.682004 -0.326664 6.812963 -13.489965 7.375730 0.000000 0.000000 0.000000
-2.194808 67.961011 342.802561 -1.151384 -0.304768 32.195097 -0.045240 0.049217 -32.231705 -0.039726 0.299708 -0.047039 -0.323372 0.215301 0.472169 0.000000 0.000000 0.000000 0.380240 -5.274805 -0.218020 -0.750884 6.194988 -0.834259 2.795802 -4.527311 3.063554 49.317356 -51.165305 -69.664131 0.000000 0.000000 0.000000 0.000000 0.000000 0.000000 -4.449626 -8.083474 2.005414 4.351980 4.691282 -1.272085 16.051453 20.405674 -9.152799 -15.612388 -28.844512 8.577147 0.000000 0.000000 0.000000 0.000000 0.000000 0.000000 1.165911 -9.139709 -34.939025 -6.401714 15.928814 4.749924 22.839705 -37.528804 45.884086 0.000000 0.000000 0.000000 2.063880 1.430904 -31.942440 2.268624 -3.918448 -0.344949 5.734752 -13.632982 7.815894 0.000000 0.000000 0.000000
